<svg width="35" height="34" viewBox="0 0 35 34" fill="none" xmlns="http://www.w3.org/2000/svg">
<circle cx="17.6665" cy="17" r="17" fill="#0073E6" fill-opacity="0.1"/>
<mask id="mask0_0_1" style="mask-type:alpha" maskUnits="userSpaceOnUse" x="7" y="6" width="23" height="22">
<rect x="7.6665" y="6" width="22" height="22" fill="#D9D9D9"/>
</mask>
<g mask="url(#mask0_0_1)">
<path d="M21.3706 26.1664L17.4748 22.2705L18.7581 20.9872L21.3706 23.5539L26.5498 18.3747L27.8331 19.7039L21.3706 26.1664ZM11.3331 13.333V16.9997H25.9998V13.333H11.3331ZM9.49976 11.4997C9.49976 10.9955 9.67942 10.5641 10.0388 10.2054C10.3975 9.84605 10.8289 9.66638 11.3331 9.66638H25.9998C26.5039 9.66638 26.9357 9.84605 27.295 10.2054C27.6537 10.5641 27.8331 10.9955 27.8331 11.4997V16.9997H25.3352L21.3706 20.9643L18.781 18.3747L14.8852 22.2705L15.0914 22.4997V24.333H11.3331C10.8289 24.333 10.3975 24.1537 10.0388 23.795C9.67942 23.4356 9.49976 23.0039 9.49976 22.4997V11.4997Z" fill="#0073E6"/>
</g>
</svg>
