<svg width="34" height="34" viewBox="0 0 34 34" fill="none" xmlns="http://www.w3.org/2000/svg">
<circle cx="17" cy="17" r="17" fill="#0073E6" fill-opacity="0.1"/>
<mask id="mask0_776_68" style="mask-type:alpha" maskUnits="userSpaceOnUse" x="6" y="4" width="23" height="23">
<rect x="6" y="4" width="23" height="23" fill="#D9D9D9"/>
</mask>
<g mask="url(#mask0_776_68)">
<path d="M17.4999 15.5C16.4458 15.5 15.5433 15.1247 14.7926 14.374C14.0419 13.6233 13.6666 12.7209 13.6666 11.6667C13.6666 10.6125 14.0419 9.71011 14.7926 8.95942C15.5433 8.20872 16.4458 7.83337 17.4999 7.83337C18.5541 7.83337 19.4565 8.20872 20.2072 8.95942C20.9579 9.71011 21.3333 10.6125 21.3333 11.6667C21.3333 12.7209 20.9579 13.6233 20.2072 14.374C19.4565 15.1247 18.5541 15.5 17.4999 15.5ZM9.83325 23.1667V20.4834C9.83325 19.9403 9.97317 19.441 10.253 18.9855C10.5322 18.5306 10.9034 18.1834 11.3666 17.9438C12.3569 17.4487 13.3631 17.0771 14.3853 16.8292C15.4076 16.582 16.4458 16.4584 17.4999 16.4584C18.5541 16.4584 19.5923 16.582 20.6145 16.8292C21.6367 17.0771 22.643 17.4487 23.6333 17.9438C24.0964 18.1834 24.4676 18.5306 24.7468 18.9855C25.0267 19.441 25.1666 19.9403 25.1666 20.4834V23.1667H9.83325Z" fill="#0073E6"/>
</g>
</svg>
