<svg width="35" height="34" viewBox="0 0 35 34" fill="none" xmlns="http://www.w3.org/2000/svg">
<circle cx="17.6665" cy="17" r="17" fill="#0073E6" fill-opacity="0.1"/>
<mask id="mask0_0_1" style="mask-type:alpha" maskUnits="userSpaceOnUse" x="6" y="6" width="23" height="22">
<rect x="6.6665" y="6" width="22" height="22" fill="#D9D9D9"/>
</mask>
<g mask="url(#mask0_0_1)">
<path d="M15.146 26.167L14.7793 23.2336C14.5807 23.1572 14.3937 23.0656 14.2183 22.9586C14.0423 22.8517 13.8703 22.7371 13.7023 22.6149L10.9752 23.7607L8.45435 19.4065L10.8148 17.619C10.7995 17.5121 10.7918 17.4088 10.7918 17.3092V16.6905C10.7918 16.5915 10.7995 16.4885 10.8148 16.3815L8.45435 14.594L10.9752 10.2399L13.7023 11.3857C13.8703 11.2635 14.046 11.1489 14.2293 11.042C14.4127 10.935 14.596 10.8433 14.7793 10.767L15.146 7.83362H20.1877L20.5543 10.767C20.753 10.8433 20.9403 10.935 21.1163 11.042C21.2917 11.1489 21.4634 11.2635 21.6314 11.3857L24.3585 10.2399L26.8793 14.594L24.5189 16.3815C24.5342 16.4885 24.5418 16.5915 24.5418 16.6905V17.3092C24.5418 17.4088 24.5266 17.5121 24.496 17.619L26.8564 19.4065L24.3356 23.7607L21.6314 22.6149C21.4634 22.7371 21.2877 22.8517 21.1043 22.9586C20.921 23.0656 20.7377 23.1572 20.5543 23.2336L20.1877 26.167H15.146ZM17.7127 20.2086C18.5988 20.2086 19.355 19.8954 19.9814 19.269C20.6078 18.6426 20.921 17.8864 20.921 17.0003C20.921 16.1142 20.6078 15.3579 19.9814 14.7315C19.355 14.1051 18.5988 13.792 17.7127 13.792C16.8113 13.792 16.0511 14.1051 15.432 14.7315C14.8136 15.3579 14.5043 16.1142 14.5043 17.0003C14.5043 17.8864 14.8136 18.6426 15.432 19.269C16.0511 19.8954 16.8113 20.2086 17.7127 20.2086Z" fill="#0073E6"/>
</g>
</svg>
