<svg width="35" height="34" viewBox="0 0 35 34" fill="none" xmlns="http://www.w3.org/2000/svg">
<circle cx="17.6665" cy="17" r="17" fill="#0073E6" fill-opacity="0.1"/>
<mask id="mask0_0_1" style="mask-type:alpha" maskUnits="userSpaceOnUse" x="6" y="5" width="24" height="23">
<rect x="6.6665" y="5" width="23" height="23" fill="#D9D9D9"/>
</mask>
<g mask="url(#mask0_0_1)">
<path d="M18.1187 22.25C18.4541 22.25 18.7378 22.134 18.9697 21.9021C19.2009 21.6708 19.3166 21.3875 19.3166 21.052C19.3166 20.7166 19.2009 20.4333 18.9697 20.202C18.7378 19.9701 18.4541 19.8541 18.1187 19.8541C17.7833 19.8541 17.4996 19.9701 17.2677 20.202C17.0364 20.4333 16.9208 20.7166 16.9208 21.052C16.9208 21.3875 17.0364 21.6708 17.2677 21.9021C17.4996 22.134 17.7833 22.25 18.1187 22.25ZM17.2562 18.5604H19.0291C19.0291 18.0333 19.0891 17.618 19.2093 17.3145C19.3287 17.0111 19.668 16.5958 20.227 16.0687C20.6423 15.6534 20.9697 15.258 21.2093 14.8823C21.4489 14.5073 21.5687 14.0562 21.5687 13.5291C21.5687 12.6347 21.2412 11.9479 20.5864 11.4687C19.9315 10.9895 19.1569 10.75 18.2624 10.75C17.352 10.75 16.6134 10.9895 16.0468 11.4687C15.4794 11.9479 15.0839 12.5229 14.8603 13.1937L16.4416 13.8166C16.5214 13.5291 16.7013 13.2177 16.9811 12.8823C17.2603 12.5468 17.6874 12.3791 18.2624 12.3791C18.7735 12.3791 19.1569 12.5187 19.4124 12.7979C19.668 13.0778 19.7958 13.3854 19.7958 13.7208C19.7958 14.0402 19.6999 14.3396 19.5083 14.6188C19.3166 14.8986 19.077 15.1583 18.7895 15.3979C18.0867 16.0208 17.6555 16.492 17.4958 16.8114C17.336 17.1309 17.2562 17.7138 17.2562 18.5604ZM18.1666 26.0833C16.8409 26.0833 15.5951 25.8316 14.4291 25.3281C13.2631 24.8253 12.2489 24.1427 11.3864 23.2802C10.5239 22.4177 9.84122 21.4034 9.33842 20.2375C8.83497 19.0715 8.58325 17.8257 8.58325 16.5C8.58325 15.1743 8.83497 13.9284 9.33842 12.7625C9.84122 11.5965 10.5239 10.5823 11.3864 9.71975C12.2489 8.85725 13.2631 8.17428 14.4291 7.67083C15.5951 7.16803 16.8409 6.91663 18.1666 6.91663C19.4923 6.91663 20.7381 7.16803 21.9041 7.67083C23.0701 8.17428 24.0843 8.85725 24.9468 9.71975C25.8093 10.5823 26.4919 11.5965 26.9948 12.7625C27.4982 13.9284 27.7499 15.1743 27.7499 16.5C27.7499 17.8257 27.4982 19.0715 26.9948 20.2375C26.4919 21.4034 25.8093 22.4177 24.9468 23.2802C24.0843 24.1427 23.0701 24.8253 21.9041 25.3281C20.7381 25.8316 19.4923 26.0833 18.1666 26.0833Z" fill="#0073E6"/>
</g>
</svg>
