<svg width="35" height="34" viewBox="0 0 35 34" fill="none" xmlns="http://www.w3.org/2000/svg">
<circle cx="17.6665" cy="17" r="17" fill="#0073E6" fill-opacity="0.1"/>
<mask id="mask0_0_1" style="mask-type:alpha" maskUnits="userSpaceOnUse" x="7" y="6" width="22" height="21">
<rect x="7.6665" y="6" width="21" height="21" fill="#D9D9D9"/>
</mask>
<g mask="url(#mask0_0_1)">
<path d="M18.0792 25.2506L22.0605 14.7506H23.898L27.8792 25.2506H26.0417L25.123 22.5819H20.8792L19.9167 25.2506H18.0792ZM21.4042 21.0506H24.5542L23.023 16.7194H22.9355L21.4042 21.0506ZM11.1667 22.6256L9.94175 21.4006L14.3605 16.9819C13.8063 16.3694 13.3216 15.735 12.9062 15.0787C12.4903 14.4225 12.1292 13.7298 11.823 13.0006H13.6605C13.923 13.5256 14.2039 13.9996 14.5031 14.4225C14.8018 14.8454 15.1626 15.2902 15.5855 15.7569C16.2272 15.0569 16.7595 14.3388 17.1824 13.6026C17.6053 12.8659 17.9626 12.0819 18.2542 11.2506H8.54175V9.50061H14.6667V7.75061H16.4167V9.50061H22.5417V11.2506H20.0042C19.698 12.286 19.2824 13.2923 18.7574 14.2694C18.2324 15.2464 17.5834 16.1652 16.8105 17.0256L18.9105 19.1694L18.2542 20.9631L15.5417 18.2506L11.1667 22.6256Z" fill="#0073E6"/>
</g>
</svg>
